# xmcd
#
# Track frame offsets: 
#        150
#        24900
#        37861
#        51849
#        64898
#        81637
#        95747
#        109913
#        129526
#        146449
#        157200
#        167141
#        179075
#        191438
#        206981
#        221936
#        234372
#        245565
#        259523
#        274574
#        289737
#        301445
#
# Disc length: 4231 seconds
#
# Revision: 0
# Processed by: cddbd v1.5.2PL0 Copyright (c) Steve Scherf et al.
# Submitted via: ExactAudioCopy v0.95b4
#
DISCID=53108516
DTITLE=Various Artist - Siempre Te Amare
DYEAR=2000
DGENRE=Ballad
TTITLE0=Laredo - El ultimo guateque
TTITLE1=Industrial Nacional - La tarde que te ame
TTITLE2=Rabito - Estrechandome
TTITLE3=Los Gatos - Viento dile a la lluvia
TTITLE4=Tormenta - Chico de mi barrio
TTITLE5=Middle Of The Road - Soley, Soley
TTITLE6=Daniel Gerard - Butterfly
TTITLE7=Los Barbaros - Adios John, Paul, George y Ringo
TTITLE8=Top Pop - Manny Blue
TTITLE9=Los Diablos - Oh oh nada mas
TTITLE10=Safari - Estoy hecho un demonio
TTITLE11=Rita Pavone - Ay muchacho
TTITLE12=Ruben Mattos - Que la dejen ir al baile sola
TTITLE13=Los Mitos - Me conformo
TTITLE14=Palito Ortega y Silvana Di Lorenzo  - Por muchas razones te q
TTITLE14=uiero
TTITLE15=La Joven Guardia - El extraño del pelo largo
TTITLE16=Roberto Jordan - Hazme una señal
TTITLE17=Los Gritos - Donde esta esa promesa
TTITLE18=Gigliola Cinquetti - No tengo edad
TTITLE19=Luis Aguile - Con amor o sin amor
TTITLE20=Ruben Mattos - Salta pequeña Langosta
TTITLE21=Los Diablos - Un rayo de sol
EXTD=
EXTT0=
EXTT1=
EXTT2=
EXTT3=
EXTT4=
EXTT5=
EXTT6=
EXTT7=
EXTT8=
EXTT9=
EXTT10=
EXTT11=
EXTT12=
EXTT13=
EXTT14=
EXTT15=
EXTT16=
EXTT17=
EXTT18=
EXTT19=
EXTT20=
EXTT21=
PLAYORDER=
